<?xml version="1.0" encoding="UTF-8"?>
<svg id="Layer_1" data-name="Layer 1" xmlns="http://www.w3.org/2000/svg" viewBox="0 0 1107.39 623.28">
  <defs>
    <style>
      .cls-1 {
        fill: #fff;
      }
    </style>
  </defs>
  <g>
    <path class="cls-1" d="M678.26,243.43c-3.05-1.69-5.16-3.9-6.31-6.62-.19-.46-.29-.84-.29-1.15,0-.58.21-1.08.63-1.53.42-.44,1-.74,1.73-.89.11-.04.31-.06.58-.06.61,0,1.2.18,1.76.55.56.37.97.85,1.24,1.47.69,1.5,2.05,2.77,4.09,3.8,2.03,1.04,4.28,1.56,6.74,1.56,2.88,0,5.32-.66,7.31-1.99,2-1.32,3-3.14,3-5.44s-.85-4.06-2.53-5.62c-1.69-1.56-4.26-2.51-7.72-2.85-4.76-.46-8.51-1.85-11.23-4.18-2.73-2.32-4.09-5.23-4.09-8.73,0-2.46.7-4.58,2.1-6.36,1.4-1.79,3.32-3.15,5.76-4.09,2.44-.94,5.17-1.41,8.21-1.41,3.3,0,6.09.67,8.35,2.02,2.27,1.34,4.19,3.26,5.76,5.76.46.73.69,1.42.69,2.07,0,.85-.38,1.54-1.15,2.07-.42.27-.92.4-1.5.4s-1.11-.14-1.61-.43c-.5-.29-.88-.68-1.15-1.18-1.04-1.73-2.33-3.04-3.89-3.95-1.56-.9-3.52-1.35-5.9-1.35-2.92,0-5.28.57-7.08,1.7-1.81,1.13-2.71,2.77-2.71,4.92,0,2,.81,3.67,2.42,5.01,1.61,1.34,4.49,2.23,8.64,2.65,4.61.46,8.18,1.85,10.71,4.18,2.53,2.32,3.8,5.39,3.8,9.19,0,2.76-.75,5.14-2.25,7.11-1.5,1.98-3.48,3.46-5.96,4.44-2.48.98-5.14,1.47-7.98,1.47-3.73,0-7.11-.84-10.17-2.53Z"/>
    <path class="cls-1" d="M719.24,243.57c-2.42-1.36-4.3-3.25-5.64-5.67-1.34-2.42-2.02-5.16-2.02-8.24s.67-5.88,2.02-8.29c1.34-2.42,3.23-4.31,5.64-5.67,2.42-1.36,5.16-2.04,8.24-2.04s5.75.68,8.15,2.04c2.4,1.36,4.28,3.25,5.64,5.67,1.36,2.42,2.04,5.18,2.04,8.29s-.67,5.82-2.02,8.24c-1.34,2.42-3.22,4.31-5.62,5.67-2.4,1.36-5.14,2.04-8.21,2.04s-5.82-.68-8.24-2.04ZM732.75,239.05c1.56-.92,2.76-2.2,3.63-3.83.86-1.63,1.3-3.48,1.3-5.56s-.43-3.94-1.3-5.59c-.86-1.65-2.07-2.94-3.63-3.86-1.56-.92-3.31-1.38-5.27-1.38s-3.72.46-5.27,1.38c-1.56.92-2.77,2.21-3.66,3.86-.88,1.65-1.32,3.51-1.32,5.59s.44,3.93,1.32,5.56c.88,1.63,2.1,2.91,3.66,3.83,1.56.92,3.31,1.38,5.27,1.38s3.72-.46,5.27-1.38Z"/>
    <path class="cls-1" d="M793.29,216.87c2.05,2.19,3.08,5.24,3.08,9.16v16.47c0,.85-.27,1.55-.81,2.1-.54.56-1.25.84-2.13.84s-1.55-.28-2.1-.84c-.56-.56-.83-1.26-.83-2.1v-16.47c0-2.34-.59-4.12-1.76-5.33-1.17-1.21-2.74-1.81-4.69-1.81s-3.64.69-4.92,2.07c-1.29,1.38-1.93,3.15-1.93,5.3v16.24c0,.85-.27,1.55-.81,2.1-.54.56-1.25.84-2.13.84s-1.55-.28-2.1-.84c-.56-.56-.83-1.26-.83-2.1v-16.47c0-2.34-.59-4.12-1.76-5.33-1.17-1.21-2.74-1.81-4.69-1.81s-3.7.69-4.98,2.07c-1.29,1.38-1.93,3.15-1.93,5.3v16.24c0,.85-.27,1.55-.81,2.1-.54.56-1.25.84-2.13.84s-1.55-.28-2.1-.84c-.56-.56-.83-1.26-.83-2.1v-25.63c0-.88.28-1.59.83-2.13.56-.54,1.26-.81,2.1-.81s1.54.26,2.07.78c.54.52.83,1.2.86,2.04,1-1,2.19-1.78,3.57-2.33,1.38-.56,2.88-.83,4.49-.83,1.96,0,3.72.39,5.27,1.18,1.56.79,2.83,1.91,3.83,3.37,1.15-1.42,2.59-2.53,4.32-3.34,1.73-.81,3.65-1.21,5.76-1.21,3.34,0,6.04,1.09,8.09,3.28Z"/>
    <path class="cls-1" d="M812.15,243.57c-2.42-1.36-4.3-3.25-5.64-5.67-1.34-2.42-2.02-5.16-2.02-8.24s.67-5.88,2.02-8.29c1.34-2.42,3.23-4.31,5.64-5.67,2.42-1.36,5.16-2.04,8.24-2.04s5.75.68,8.15,2.04c2.4,1.36,4.28,3.25,5.64,5.67,1.36,2.42,2.04,5.18,2.04,8.29s-.67,5.82-2.02,8.24c-1.34,2.42-3.22,4.31-5.62,5.67-2.4,1.36-5.14,2.04-8.21,2.04s-5.82-.68-8.24-2.04ZM825.66,239.05c1.56-.92,2.76-2.2,3.63-3.83.86-1.63,1.3-3.48,1.3-5.56s-.43-3.94-1.3-5.59c-.86-1.65-2.07-2.94-3.63-3.86-1.56-.92-3.31-1.38-5.27-1.38s-3.72.46-5.27,1.38c-1.56.92-2.77,2.21-3.66,3.86-.88,1.65-1.32,3.51-1.32,5.59s.44,3.93,1.32,5.56c.88,1.63,2.1,2.91,3.66,3.83,1.56.92,3.31,1.38,5.27,1.38s3.72-.46,5.27-1.38Z"/>
    <path class="cls-1" d="M849.07,244.41c-2.3-.81-4.11-1.86-5.41-3.17-.5-.5-.75-1.09-.75-1.79,0-.92.38-1.67,1.15-2.25.73-.54,1.4-.81,2.02-.81.77,0,1.5.35,2.19,1.04.73.81,1.82,1.51,3.28,2.1,1.46.6,3.01.89,4.67.89,2.19,0,3.89-.36,5.1-1.09,1.21-.73,1.81-1.71,1.81-2.94s-.6-2.18-1.79-2.97c-1.19-.79-3.21-1.45-6.05-1.99-7.37-1.42-11.06-4.45-11.06-9.1,0-1.88.56-3.47,1.67-4.78,1.11-1.3,2.57-2.28,4.38-2.94,1.8-.65,3.72-.98,5.76-.98,2.5,0,4.73.4,6.71,1.21,1.98.81,3.54,1.92,4.69,3.34.5.61.75,1.23.75,1.84,0,.65-.33,1.25-.98,1.79-.42.31-.96.46-1.61.46-1,0-1.9-.36-2.71-1.09-.96-.88-1.98-1.51-3.05-1.87-1.08-.36-2.38-.55-3.92-.55-1.77,0-3.22.3-4.35.89-1.13.6-1.7,1.43-1.7,2.51,0,.77.19,1.41.58,1.93.38.52,1.11,1,2.19,1.44,1.07.44,2.63.87,4.67,1.3,4.19.85,7.15,2.02,8.9,3.51,1.75,1.5,2.62,3.44,2.62,5.82,0,1.77-.48,3.37-1.44,4.81-.96,1.44-2.37,2.57-4.23,3.4-1.86.83-4.1,1.24-6.71,1.24s-5.07-.4-7.37-1.21Z"/>
    <path class="cls-1" d="M704.81,268.3c.52.52.78,1.18.78,1.99s-.26,1.47-.78,1.99c-.52.52-1.18.78-1.99.78h-12.38v36.46c0,.85-.29,1.56-.86,2.13-.58.58-1.29.86-2.13.86s-1.56-.29-2.13-.86-.86-1.29-.86-2.13v-36.46h-12.44c-.81,0-1.47-.26-1.99-.78s-.78-1.18-.78-1.99.26-1.47.78-1.99c.52-.52,1.18-.78,1.99-.78h30.82c.81,0,1.47.26,1.99.78Z"/>
    <path class="cls-1" d="M709.05,310.69c-2.42-1.36-4.3-3.25-5.64-5.67-1.34-2.42-2.02-5.16-2.02-8.24s.67-5.88,2.02-8.29c1.34-2.42,3.23-4.31,5.64-5.67,2.42-1.36,5.16-2.04,8.24-2.04s5.75.68,8.15,2.04c2.4,1.36,4.28,3.25,5.64,5.67,1.36,2.42,2.04,5.18,2.04,8.29s-.67,5.82-2.02,8.24c-1.34,2.42-3.22,4.31-5.62,5.67-2.4,1.36-5.14,2.04-8.21,2.04s-5.82-.68-8.24-2.04ZM722.56,306.17c1.56-.92,2.76-2.2,3.63-3.83.86-1.63,1.3-3.48,1.3-5.56s-.43-3.94-1.3-5.59c-.86-1.65-2.07-2.94-3.63-3.86-1.56-.92-3.31-1.38-5.27-1.38s-3.72.46-5.27,1.38c-1.56.92-2.77,2.21-3.66,3.86-.88,1.65-1.32,3.51-1.32,5.59s.44,3.93,1.32,5.56c.88,1.63,2.1,2.91,3.66,3.83,1.56.92,3.31,1.38,5.27,1.38s3.72-.46,5.27-1.38Z"/>
    <path class="cls-1" d="M771.2,268.33c.54.54.81,1.25.81,2.13v26.27c0,3-.7,5.71-2.1,8.15-1.4,2.44-3.3,4.36-5.7,5.76-2.4,1.4-5.08,2.1-8.04,2.1s-5.65-.7-8.09-2.1c-2.44-1.4-4.35-3.32-5.73-5.76-1.38-2.44-2.07-5.16-2.07-8.15s.64-5.71,1.93-8.15c1.29-2.44,3.05-4.35,5.3-5.73,2.25-1.38,4.75-2.07,7.52-2.07,2.23,0,4.3.46,6.22,1.38,1.92.92,3.55,2.21,4.9,3.86v-15.55c0-.88.28-1.59.83-2.13.56-.54,1.26-.81,2.1-.81s1.59.27,2.13.81ZM761.38,306.14c1.56-.94,2.77-2.24,3.66-3.89.88-1.65,1.33-3.49,1.33-5.53s-.44-3.87-1.33-5.5c-.88-1.63-2.1-2.92-3.66-3.86-1.56-.94-3.29-1.41-5.21-1.41s-3.66.47-5.21,1.41c-1.56.94-2.78,2.23-3.69,3.86-.9,1.63-1.35,3.47-1.35,5.5s.45,3.88,1.35,5.53c.9,1.65,2.13,2.95,3.69,3.89,1.56.94,3.29,1.41,5.21,1.41s3.66-.47,5.21-1.41Z"/>
    <path class="cls-1" d="M788.42,310.69c-2.42-1.36-4.3-3.25-5.64-5.67-1.34-2.42-2.02-5.16-2.02-8.24s.67-5.88,2.02-8.29c1.34-2.42,3.23-4.31,5.64-5.67,2.42-1.36,5.16-2.04,8.24-2.04s5.75.68,8.15,2.04c2.4,1.36,4.28,3.25,5.64,5.67,1.36,2.42,2.04,5.18,2.04,8.29s-.67,5.82-2.02,8.24c-1.34,2.42-3.22,4.31-5.62,5.67-2.4,1.36-5.14,2.04-8.21,2.04s-5.82-.68-8.24-2.04ZM801.93,306.17c1.56-.92,2.76-2.2,3.63-3.83.86-1.63,1.3-3.48,1.3-5.56s-.43-3.94-1.3-5.59c-.86-1.65-2.07-2.94-3.63-3.86-1.56-.92-3.31-1.38-5.27-1.38s-3.72.46-5.27,1.38c-1.56.92-2.77,2.21-3.66,3.86-.88,1.65-1.32,3.51-1.32,5.59s.44,3.93,1.32,5.56c.88,1.63,2.1,2.91,3.66,3.83,1.56.92,3.31,1.38,5.27,1.38s3.72-.46,5.27-1.38Z"/>
    <path class="cls-1" d="M825.34,311.53c-2.3-.81-4.11-1.86-5.41-3.17-.5-.5-.75-1.09-.75-1.79,0-.92.38-1.67,1.15-2.25.73-.54,1.4-.81,2.02-.81.77,0,1.5.35,2.19,1.04.73.81,1.82,1.51,3.28,2.1,1.46.6,3.01.89,4.67.89,2.19,0,3.89-.36,5.1-1.09,1.21-.73,1.81-1.71,1.81-2.94s-.6-2.18-1.79-2.97c-1.19-.79-3.21-1.45-6.05-1.99-7.37-1.42-11.06-4.45-11.06-9.1,0-1.88.56-3.47,1.67-4.78,1.11-1.3,2.57-2.28,4.38-2.94,1.8-.65,3.72-.98,5.76-.98,2.5,0,4.73.4,6.71,1.21,1.98.81,3.54,1.92,4.69,3.34.5.61.75,1.23.75,1.84,0,.65-.33,1.25-.98,1.79-.42.31-.96.46-1.61.46-1,0-1.9-.36-2.71-1.09-.96-.88-1.98-1.51-3.05-1.87-1.08-.36-2.38-.55-3.92-.55-1.77,0-3.22.3-4.35.89-1.13.6-1.7,1.43-1.7,2.51,0,.77.19,1.41.58,1.93.38.52,1.11,1,2.19,1.44,1.07.44,2.63.87,4.67,1.3,4.19.85,7.15,2.02,8.9,3.51,1.75,1.5,2.62,3.44,2.62,5.82,0,1.77-.48,3.37-1.44,4.81-.96,1.44-2.37,2.57-4.23,3.4-1.86.83-4.1,1.24-6.71,1.24s-5.07-.4-7.37-1.21Z"/>
    <path class="cls-1" d="M675.01,378.76c-.58-.58-.86-1.29-.86-2.13v-39c0-.88.29-1.6.86-2.16.58-.56,1.29-.83,2.13-.83s1.6.28,2.16.83c.56.56.84,1.28.84,2.16v16.53h26.73v-16.53c0-.88.29-1.6.86-2.16.58-.56,1.29-.83,2.13-.83s1.55.28,2.1.83c.56.56.83,1.28.83,2.16v39c0,.88-.28,1.6-.83,2.16-.56.56-1.26.83-2.1.83s-1.56-.29-2.13-.86-.86-1.29-.86-2.13v-17.17h-26.73v17.17c0,.85-.28,1.56-.84,2.13-.56.58-1.28.86-2.16.86s-1.56-.29-2.13-.86Z"/>
    <path class="cls-1" d="M751.84,348.87c.54.54.81,1.25.81,2.13v25.69c0,.85-.27,1.55-.81,2.1-.54.56-1.25.83-2.13.83s-1.55-.28-2.1-.83c-.56-.56-.83-1.26-.83-2.1v-.63c-1.23,1.23-2.69,2.18-4.38,2.85-1.69.67-3.49,1.01-5.41,1.01-2.65,0-5.03-.58-7.14-1.73-2.11-1.15-3.76-2.83-4.95-5.04-1.19-2.21-1.79-4.87-1.79-7.98v-14.17c0-.84.28-1.55.84-2.1s1.26-.83,2.1-.83,1.55.28,2.1.83c.56.56.84,1.26.84,2.1v14.17c0,3.11.83,5.46,2.51,7.06,1.67,1.59,3.89,2.39,6.65,2.39,1.61,0,3.08-.33,4.41-.98,1.32-.65,2.36-1.54,3.11-2.65.75-1.11,1.12-2.36,1.12-3.74v-16.24c0-.88.28-1.59.83-2.13.56-.54,1.26-.81,2.1-.81s1.59.27,2.13.81Z"/>
    <path class="cls-1" d="M804.23,351.11c2.05,2.19,3.08,5.24,3.08,9.16v16.47c0,.85-.27,1.55-.81,2.1-.54.56-1.25.84-2.13.84s-1.55-.28-2.1-.84c-.56-.56-.83-1.26-.83-2.1v-16.47c0-2.34-.59-4.12-1.76-5.33-1.17-1.21-2.74-1.81-4.69-1.81s-3.64.69-4.92,2.07c-1.29,1.38-1.93,3.15-1.93,5.3v16.24c0,.85-.27,1.55-.81,2.1-.54.56-1.25.84-2.13.84s-1.55-.28-2.1-.84c-.56-.56-.83-1.26-.83-2.1v-16.47c0-2.34-.59-4.12-1.76-5.33-1.17-1.21-2.74-1.81-4.69-1.81s-3.7.69-4.98,2.07c-1.29,1.38-1.93,3.15-1.93,5.3v16.24c0,.85-.27,1.55-.81,2.1-.54.56-1.25.84-2.13.84s-1.55-.28-2.1-.84c-.56-.56-.83-1.26-.83-2.1v-25.63c0-.88.28-1.59.83-2.13.56-.54,1.26-.81,2.1-.81s1.54.26,2.07.78c.54.52.83,1.2.86,2.04,1-1,2.19-1.78,3.57-2.33,1.38-.56,2.88-.83,4.49-.83,1.96,0,3.72.39,5.27,1.18,1.56.79,2.83,1.91,3.83,3.37,1.15-1.42,2.59-2.53,4.32-3.34,1.73-.81,3.65-1.21,5.76-1.21,3.34,0,6.04,1.09,8.09,3.28Z"/>
    <path class="cls-1" d="M839.37,349.99c2.4,1.4,4.3,3.32,5.7,5.76,1.4,2.44,2.1,5.16,2.1,8.15v12.84c0,.85-.28,1.55-.83,2.1s-1.26.84-2.1.84-1.55-.28-2.1-.84c-.56-.56-.83-1.26-.83-2.1v-2.13c-1.34,1.65-2.98,2.94-4.9,3.86-1.92.92-3.99,1.38-6.22,1.38-2.77,0-5.27-.69-7.52-2.07-2.25-1.38-4.01-3.29-5.3-5.73-1.29-2.44-1.93-5.16-1.93-8.15s.69-5.71,2.07-8.15c1.38-2.44,3.29-4.36,5.73-5.76,2.44-1.4,5.14-2.1,8.09-2.1s5.63.7,8.04,2.1ZM836.54,373.26c1.56-.94,2.77-2.23,3.66-3.86.88-1.63,1.33-3.46,1.33-5.5s-.44-3.88-1.33-5.53c-.88-1.65-2.1-2.95-3.66-3.89-1.56-.94-3.29-1.41-5.21-1.41s-3.66.47-5.21,1.41c-1.56.94-2.78,2.24-3.69,3.89-.9,1.65-1.35,3.49-1.35,5.53s.45,3.87,1.35,5.5c.9,1.63,2.13,2.92,3.69,3.86,1.56.94,3.29,1.41,5.21,1.41s3.66-.47,5.21-1.41Z"/>
    <path class="cls-1" d="M878.73,349.56c2.11,1.15,3.76,2.83,4.95,5.04,1.19,2.21,1.79,4.87,1.79,7.98v14.17c0,.85-.28,1.55-.83,2.1s-1.26.84-2.1.84-1.55-.28-2.1-.84c-.56-.56-.84-1.26-.84-2.1v-14.17c0-3.11-.83-5.46-2.51-7.06-1.67-1.59-3.89-2.39-6.65-2.39-1.61,0-3.08.33-4.41.98-1.33.65-2.36,1.54-3.11,2.65-.75,1.11-1.12,2.36-1.12,3.74v16.24c0,.85-.27,1.55-.81,2.1-.54.56-1.25.84-2.13.84s-1.55-.28-2.1-.84c-.56-.56-.83-1.26-.83-2.1v-25.69c0-.88.28-1.59.83-2.13.56-.54,1.26-.81,2.1-.81s1.59.27,2.13.81c.54.54.81,1.25.81,2.13v.63c1.23-1.23,2.69-2.18,4.38-2.85,1.69-.67,3.49-1.01,5.41-1.01,2.65,0,5.03.58,7.14,1.73Z"/>
    <path class="cls-1" d="M901.25,377.81c-2.42-1.36-4.3-3.25-5.64-5.67-1.34-2.42-2.02-5.16-2.02-8.24s.67-5.88,2.02-8.29c1.34-2.42,3.23-4.31,5.64-5.67,2.42-1.36,5.16-2.04,8.24-2.04s5.75.68,8.15,2.04c2.4,1.36,4.28,3.25,5.64,5.67,1.36,2.42,2.04,5.18,2.04,8.29s-.67,5.82-2.02,8.24c-1.34,2.42-3.22,4.31-5.62,5.67-2.4,1.36-5.14,2.04-8.21,2.04s-5.82-.68-8.24-2.04ZM914.76,373.29c1.56-.92,2.76-2.2,3.63-3.83.86-1.63,1.3-3.48,1.3-5.56s-.43-3.94-1.3-5.59c-.86-1.65-2.07-2.94-3.63-3.86-1.56-.92-3.31-1.38-5.27-1.38s-3.72.46-5.27,1.38c-1.56.92-2.77,2.21-3.66,3.86-.88,1.65-1.32,3.51-1.32,5.59s.44,3.93,1.32,5.56c.88,1.63,2.1,2.91,3.66,3.83,1.56.92,3.31,1.38,5.27,1.38s3.72-.46,5.27-1.38Z"/>
    <path class="cls-1" d="M938.18,378.65c-2.3-.81-4.11-1.86-5.41-3.17-.5-.5-.75-1.09-.75-1.79,0-.92.38-1.67,1.15-2.25.73-.54,1.4-.81,2.02-.81.77,0,1.5.35,2.19,1.04.73.81,1.82,1.51,3.28,2.1,1.46.6,3.01.89,4.67.89,2.19,0,3.89-.36,5.1-1.09,1.21-.73,1.81-1.71,1.81-2.94s-.6-2.18-1.79-2.97c-1.19-.79-3.21-1.45-6.05-1.99-7.37-1.42-11.06-4.45-11.06-9.1,0-1.88.56-3.47,1.67-4.78,1.11-1.3,2.57-2.28,4.38-2.94,1.8-.65,3.72-.98,5.76-.98,2.5,0,4.73.4,6.71,1.21,1.98.81,3.54,1.92,4.69,3.34.5.61.75,1.23.75,1.84,0,.65-.33,1.25-.98,1.79-.42.31-.96.46-1.61.46-1,0-1.9-.36-2.71-1.09-.96-.88-1.98-1.51-3.05-1.87-1.08-.36-2.38-.55-3.92-.55-1.77,0-3.22.3-4.35.89-1.13.6-1.7,1.43-1.7,2.51,0,.77.19,1.41.58,1.93.38.52,1.11,1,2.19,1.44,1.07.44,2.63.87,4.67,1.3,4.19.85,7.15,2.02,8.9,3.51,1.75,1.5,2.62,3.44,2.62,5.82,0,1.77-.48,3.37-1.44,4.81-.96,1.44-2.37,2.57-4.23,3.4-1.86.83-4.1,1.24-6.71,1.24s-5.07-.4-7.37-1.21Z"/>
  </g>
  <g>
    <path class="cls-1" d="M594.79,422.81h-330.95c-20.97,0-38.03-18.57-38.03-41.4v-175.23c0-22.29,16.7-39.76,38.03-39.76h330.95c21.32,0,38.02,17.46,38.02,39.76v175.23c0,22.83-17.06,41.4-38.02,41.4ZM263.83,169.42c-19.64,0-35.03,16.15-35.03,36.76v175.23c0,21.17,15.71,38.4,35.03,38.4h330.95c19.31,0,35.02-17.23,35.02-38.4v-175.23c0-20.61-15.38-36.76-35.02-36.76h-330.95Z"/>
    <g>
      <path class="cls-1" d="M313.16,327.59c0,.41-.12.9-.37,1.45l-26.67,48.84c-1.06,1.8-2.6,2.69-4.63,2.69s-3.41-.9-4.38-2.69l-27.03-48.74c-.24-.41-.36-.9-.36-1.45,0-1.45.89-2.55,2.68-3.31.57-.28,1.22-.41,1.95-.41.81,0,1.56.17,2.25.52.69.35,1.2.86,1.52,1.55l23.38,43.05,23.13-43.05c.32-.69.85-1.22,1.58-1.6.73-.38,1.54-.57,2.43-.57.73,0,1.38.14,1.95.41,1.71.69,2.56,1.79,2.56,3.31Z"/>
      <path class="cls-1" d="M367.23,327.02c4.63,2.38,8.22,5.68,10.78,9.88,2.56,4.21,3.84,9,3.84,14.39,0,1.1-.41,1.98-1.22,2.64-.81.66-1.87.98-3.17.98h-49.19c.65,5.66,3.25,10.24,7.79,13.76,4.55,3.52,10.23,5.28,17.05,5.28,2.92,0,5.86-.43,8.83-1.29,2.96-.86,5.34-1.95,7.12-3.26,1.06-.69,2.15-1.04,3.29-1.04.89,0,1.78.28,2.68.83,1.06.83,1.58,1.76,1.58,2.79,0,.9-.45,1.69-1.34,2.38-2.68,1.93-6.09,3.53-10.23,4.81-4.14,1.28-8.12,1.91-11.93,1.91-6.5,0-12.3-1.22-17.41-3.67-5.11-2.45-9.11-5.86-11.99-10.24-2.88-4.38-4.32-9.33-4.32-14.85s1.36-10.57,4.08-14.95c2.72-4.38,6.49-7.79,11.32-10.24,4.83-2.45,10.33-3.67,16.5-3.67s11.33,1.19,15.95,3.57ZM335.93,335.45c-4.06,3.24-6.54,7.52-7.43,12.83h44.57c-.65-5.31-2.92-9.59-6.82-12.83-3.9-3.24-8.89-4.86-14.98-4.86s-11.28,1.62-15.34,4.86Z"/>
      <path class="cls-1" d="M442.97,327.13c5.11,2.45,9.13,5.86,12.05,10.24,2.92,4.38,4.38,9.36,4.38,14.95v21.11c0,5.52-1.44,10.52-4.32,15-2.88,4.48-6.88,8.02-11.99,10.61-5.11,2.59-10.88,3.88-17.29,3.88s-11.81-1-16.68-3c-4.87-2-8.97-4.79-12.3-8.38-.73-.69-1.1-1.49-1.1-2.38,0-1.04.57-1.93,1.71-2.69.81-.48,1.7-.72,2.68-.72.73,0,1.46.15,2.19.47s1.3.71,1.71,1.19c2.44,2.62,5.52,4.66,9.25,6.11,3.73,1.45,7.95,2.17,12.66,2.17s8.66-.95,12.36-2.85c3.69-1.9,6.59-4.55,8.71-7.97,2.11-3.41,3.16-7.33,3.16-11.74v-4.66c-2.43,3.93-5.89,7.02-10.35,9.26-4.47,2.24-9.54,3.36-15.22,3.36-6.33,0-11.99-1.22-16.99-3.67-4.99-2.45-8.89-5.86-11.69-10.24-2.8-4.38-4.2-9.33-4.2-14.85s1.46-10.57,4.38-14.95c2.92-4.38,6.96-7.79,12.12-10.24,5.15-2.45,10.94-3.67,17.35-3.67s12.3,1.23,17.41,3.67ZM438.22,371.1c3.73-1.83,6.65-4.38,8.77-7.66,2.11-3.28,3.16-6.98,3.16-11.12s-1.06-7.85-3.16-11.12c-2.11-3.28-5.03-5.85-8.77-7.71-3.73-1.86-7.96-2.79-12.66-2.79s-9.05.93-12.78,2.79c-3.73,1.86-6.66,4.43-8.77,7.71-2.11,3.28-3.17,6.98-3.17,11.12s1.05,7.85,3.17,11.12c2.11,3.28,5.03,5.83,8.77,7.66,3.73,1.83,7.99,2.74,12.78,2.74s8.93-.91,12.66-2.74Z"/>
      <path class="cls-1" d="M525.22,327.23c5.15,2.52,9.21,5.98,12.18,10.4,2.96,4.42,4.44,9.31,4.44,14.69v24.32c0,1.11-.45,2.04-1.34,2.79-.89.76-2.03,1.14-3.41,1.14s-2.52-.36-3.41-1.09c-.9-.72-1.34-1.67-1.34-2.85v-6.21c-2.84,3.31-6.45,5.92-10.84,7.81-4.38,1.9-9.21,2.85-14.49,2.85-6.17,0-11.75-1.26-16.74-3.78-4.99-2.52-8.93-5.97-11.81-10.35s-4.32-9.26-4.32-14.64,1.48-10.28,4.44-14.69c2.96-4.41,7.02-7.88,12.18-10.4,5.15-2.52,10.9-3.78,17.23-3.78s12.07,1.26,17.23,3.78ZM520.53,371.05c3.73-1.86,6.68-4.43,8.83-7.71,2.15-3.28,3.23-6.95,3.23-11.02s-1.08-7.74-3.23-11.02c-2.15-3.28-5.1-5.86-8.83-7.76-3.73-1.9-7.91-2.85-12.54-2.85s-8.83.95-12.6,2.85c-3.77,1.9-6.74,4.49-8.89,7.76-2.15,3.28-3.23,6.95-3.23,11.02s1.08,7.75,3.23,11.02c2.15,3.28,5.11,5.85,8.89,7.71,3.77,1.86,7.98,2.79,12.6,2.79s8.81-.93,12.54-2.79Z"/>
      <path class="cls-1" d="M568.87,378.91c-4.63-1.45-8.36-3.48-11.2-6.11-.81-.83-1.22-1.62-1.22-2.38,0-1.17.65-2.21,1.95-3.1.97-.62,1.99-.93,3.04-.93,1.38,0,2.56.49,3.53,1.45,1.95,1.93,4.53,3.41,7.73,4.45,3.21,1.03,6.76,1.55,10.65,1.55,5.68,0,9.94-.83,12.78-2.48,2.84-1.66,4.3-3.83,4.38-6.52,0-2.48-1.42-4.55-4.26-6.21-2.84-1.66-7.35-2.9-13.52-3.72-7.95-1.1-13.9-3.02-17.84-5.74-3.94-2.72-5.91-6.02-5.91-9.88,0-5.03,2.29-8.93,6.88-11.69,4.59-2.76,10.33-4.14,17.23-4.14,5.36,0,10.02.78,14,2.33,3.98,1.55,7.18,3.71,9.62,6.47.65.9.97,1.69.97,2.38,0,1.17-.65,2.11-1.95,2.79-.57.34-1.34.52-2.31.52-1.71,0-3.12-.52-4.26-1.55-3.98-3.86-9.42-5.79-16.32-5.79-4.47,0-8.04.78-10.72,2.33-2.68,1.55-4.02,3.5-4.02,5.85,0,2.48,1.26,4.47,3.77,5.95,2.52,1.48,6.98,2.67,13.39,3.57,8.68,1.24,14.89,3.26,18.63,6.05,3.73,2.79,5.6,6.26,5.6,10.4,0,3.17-1.12,6-3.35,8.49-2.23,2.48-5.34,4.42-9.32,5.79-3.98,1.38-8.48,2.07-13.52,2.07s-9.86-.72-14.49-2.17Z"/>
    </g>
    <path class="cls-1" d="M339.51,233.69c19.56,22.22,32.64,44.44,39.3,66.79h-106.94c-12.18,0-22.06-9.88-22.06-22.06v-67.54c0-12.53,10.15-22.68,22.67-22.68h13.85c18.74,11.52,36.48,26.72,53.18,45.49ZM609.02,208.12c-1.08-11.17-10.5-19.92-21.97-19.92h-261.5c37.22,27.59,65.22,65.02,83.87,112.28h19.05c25.24-13.79,64-33.8,116.3-60.12,26.52-13.4,47.93-24.15,64.25-32.24ZM577.33,249.66c-40.29,19.06-73.96,35.98-100.95,50.82h110.67c12.19,0,22.07-9.88,22.07-22.06v-43.48c-10.22,4.67-20.8,9.61-31.79,14.72Z"/>
  </g>
</svg>